<svg width="322.69mm" height="327.6mm" version="1.1" viewBox="0 0 322.69 327.6" xmlns="http://www.w3.org/2000/svg">
 <g transform="translate(119.58 -5.8178)">
  <path d="m166.31 122.75-34.018 0.37796s-22.301-10.205-22.301-12.095-10.583-35.908-10.583-35.908c2.68-5.8398 4.1636-13.075 18.521-5.2917l7.5595 35.908 23.057 7.9375 12.473-0.75595 6.8036-12.851 6.0476-51.405-10.205-7.9375 1.1339-27.592 7.5595-6.8036 7.5595 0.75595 5.6696-1.1339 6.8036 4.5357 6.8036-0.75596 3.7798 7.1815-9.0714 31.372-10.583 5.6696-7.9375 53.673 3.0238 1.1339 0.75597 3.7798-2.2679 1.5119-0.37795 1.8899-0.37799 1.8899-2.6458 1.5119 0.37798 1.8899v1.8899l-1.5119 1.1339-2.2679 13.607-5.6696-0.37799z" fill="#00e3ff" fill-rule="evenodd" stroke="#000" stroke-width=".26458px"/>
 </g>
</svg>
