<svg width="322.69mm" height="327.6mm" version="1.1" viewBox="0 0 322.69 327.6" xmlns="http://www.w3.org/2000/svg">
 <g transform="translate(119.58 -5.8178)">
  <path d="m132.29 123.13-0.4009-15.08 2.816-1.1272-0.22712-2.5528 2.4754-2.6215-4.0098-1.7582-0.16822-2.7764c1.4055-3.2248 3.2517-5.2743 3.6724-11.125l0.75594-3.7798 0.75597-2.6648c-1.3012 0.84492-1.1997-1.1158-1.5119-2.2489-2.1416 1.1516-2.2156-0.65065-1.8899-3.0238l-3.0562 1.5766c-4.4119-2.467-6.614-5.8179-9.3544-8.9535l0.13363-5.0781 6.8154-0.26727 0.80181-2.94 2.0045-0.93545 1.6036-1.47-0.53454-2.2718 2.5391-0.80181-1.3364-5.479 1.47-2.5391 0.26728-5.0781 3.6081-1.7372-0.66816-2.94-0.93546-1.47-0.40089-0.93545 1.7372-1.3364 1.0691-3.0736-2.4054 0.66818-0.93543-3.0736-2.0045 0.26727-3.3408-2.5391-3.6081-1.2027-2.8063-3.4745 2.0045-5.3454-1.6036-1.0691-6.6817-2.5391-6.2808 3.3409 0.53454 5.3454-6.6817 7.0826-1.8709 6.5481-7.3499-3.6081-1.6036 3.2072 2.2718 2.5391-2.1382 1.6036 4.1427 1.8709-4.1427 6.4145-2.8063-2.1382 0.4009 9.4881 1.6036 0.53454-1.3363 2.8063 2.5391 2.2718 7.2163-4.9445-6.6817 11.626-4.1427 2.4054 0.66817 7.0826-0.26727 1.6036 1.6036 3.3409 5.479-0.26727 2.0045 9.4881 3.3409 12.027 3.0736 8.8199-2.1382 8.1517c-3.7108-0.20031-8.0081 0.0183-9.3544-1.8709l-16.571-0.4009-7.7508 9.0872 4.8109 2.94s-10.691 12.294-11.493 12.695c-0.80181 0.4009 0.93544 8.0181 0.93544 8.0181l9.7553-4.5436c-1.1952 6.1547-4.7839 9.9159-7.6172 14.433l10.023-1.0691-3.2072 9.889 3.4745-0.53454-2.1381 4.9445 1.8709-0.26728-1.6036 4.1427 3.2072-1.2027-4.4099 12.829 7.4835 1.0691-7.8844 20.045 3.7418 1.6036-6.8154 16.17 3.8754 0.53454-6.5481 8.9535 9.2208 0.66818 2.8063 1.7372 4.2763-0.80182 4.9445 1.6036 5.479-1.3364 0.13363 4.9445 0.26727 4.8109 1.47 2.8063v3.0736h4.4099l-0.80181-2.94 7.3499 2.2718 8.9535-0.13362h2.94l-6.1472-3.8754-8.419-8.1517-0.93544-2.6727 4.9445 0.53454-0.80181 3.7418 1.7373 10.958 6.949 0.4009-0.13363-3.2072 3.3409 3.6081h10.824s-0.26728-2.8063-0.80181-3.0736c-0.53453-0.26728-7.7508-0.53454-7.7508-0.53454l-5.6127-8.0181-0.13364-2.5391 5.6127 0.80182-0.53454-1.7373h10.29l-0.4009-3.2072 7.7216-0.67223c-6.2392-4.1547-10.87-110.23-9.0714-110.37z" fill="#0ff" fill-rule="evenodd" stroke="#000" stroke-width=".26458px"/>
 </g>
</svg>
