<svg width="292.91mm" height="210.44mm" version="1.1" viewBox="0 0 292.91 210.44" xmlns="http://www.w3.org/2000/svg">
 <path d="m26.458 6.907c-14.658 0-26.458 11.8-26.458 26.458v0.30592c0 14.658 11.8 26.482 26.458 26.458l179.71-0.29243c3.4974 0.29498 7.2716 2.1042 8.773 3.5092 1.764 1.3628 3.816 4.9183 3.2168 7.3108v113.32c0 14.658 11.8 26.458 26.458 26.458h15.512c14.658 0 26.458-11.8 26.458-26.458v-150.31-0.30592c0-10.306-5.8339-19.2-14.393-23.572-1.4e-4 -7.1e-5 -2.6e-4 6.9e-5 -5.3e-4 0-2.4725-1.263-5.1724-2.1488-8.0248-2.5823-1.7e-4 -2.6e-5 -2.7e-4 2.7e-5 -5.3e-4 0-0.65812-0.1-1.3244-0.17592-1.9978-0.22686-1.7e-4 -1.3e-5 -2.6e-4 1.4e-5 -5.3e-4 0-0.67361-0.05094-1.3541-0.077-2.0412-0.077h-15.512z" color="#000000" fill="#cfd19a"/>
 <path d="m31.722 1.0583c-14.658 0-26.458 11.8-26.458 26.458v0.30592c0 14.658 11.8 26.482 26.458 26.458l179.71-0.29243c3.4974 0.29498 7.2716 2.1042 8.773 3.5092 1.764 1.3628 3.816 4.9183 3.2168 7.3108v113.32c0 14.658 11.8 26.458 26.458 26.458h15.512c14.658 0 26.458-11.8 26.458-26.458v-150.31-0.30592c0-10.306-5.8339-19.2-14.393-23.572-1.4e-4 -7.2e-5 -2.6e-4 6.9e-5 -5.3e-4 0-2.4725-1.263-5.1724-2.1488-8.0248-2.5823-1.7e-4 -2.6e-5 -2.7e-4 2.7e-5 -5.3e-4 0-0.65812-0.1-1.3244-0.17592-1.9978-0.22686-1.7e-4 -1.3e-5 -2.7e-4 1.3e-5 -5.3e-4 0-0.67361-0.05094-1.3541-0.077-2.0412-0.077h-15.512z" color="#000000" fill="#e5e6c8" stroke="#000" stroke-dasharray="2.11666673, 4.23333346" stroke-width="2.1167"/>
</svg>
