<svg width="210mm" height="297mm" version="1.1" viewBox="0 0 210 297" xmlns="http://www.w3.org/2000/svg">
 <path transform="scale(.26458)" d="m412.86 31.789c-163.56 3.26e-4 -296.16 132.59-296.16 296.16 0.0617 141.9 96.617 262.03 235.95 288.9-1.2065 12.071-2.3606 26.031-2.3606 39.531v358.7c0 50.029 31.858 90.305 71.43 90.305 39.571 0 71.428-40.276 71.428-90.305v-358.7c0-14.994-0.51187-23.181-0.85175-37.968 131.49-33.119 216.6-154.86 216.72-290.46-3.2e-4 -163.56-132.59-296.16-296.16-296.16zm176.76 299.59a176.19 173.33 0 0 1-176.19 173.33 176.19 173.33 0 0 1-176.19-173.33 176.19 173.33 0 0 1 176.19-173.33 176.19 173.33 0 0 1 176.19 173.33z" fill="#ffb82a" fill-rule="evenodd" opacity=".922" stroke="#000" stroke-width="14.709" style="paint-order:markers stroke fill"/>
</svg>
